<svg xmlns="http://www.w3.org/2000/svg" version="1.1" xmlns:xlink="http://www.w3.org/1999/xlink" xmlns:svgjs="http://svgjs.dev/svgjs" width="1920" height="1080" preserveAspectRatio="none" viewBox="0 0 1920 1080"><g mask="url(&quot;#SvgjsMask1069&quot;)" fill="none"><rect width="1920" height="1080" x="0" y="0" fill="rgba(248, 249, 250, 1)"></rect><path d="M91 1080L1171 0L1408 0L328 1080z" fill="url(&quot;#SvgjsLinearGradient1070&quot;)"></path><path d="M692.6 1080L1772.6 0L2405.6 0L1325.6 1080z" fill="url(&quot;#SvgjsLinearGradient1070&quot;)"></path><path d="M1810 1080L730 0L175 0L1255 1080z" fill="url(&quot;#SvgjsLinearGradient1071&quot;)"></path><path d="M1177.4 1080L97.40000000000009 0L-144.0999999999999 0L935.9000000000001 1080z" fill="url(&quot;#SvgjsLinearGradient1071&quot;)"></path><path d="M1216.1811832653075 1080L1920 376.1811832653076L1920 1080z" fill="url(&quot;#SvgjsLinearGradient1070&quot;)"></path><path d="M0 1080L703.8188167346924 1080L 0 376.1811832653076z" fill="url(&quot;#SvgjsLinearGradient1071&quot;)"></path></g><defs><mask id="SvgjsMask1069"><rect width="1920" height="1080" fill="#ffffff"></rect></mask><linearGradient x1="0%" y1="100%" x2="100%" y2="0%" id="SvgjsLinearGradient1070"><stop stop-color="rgba(33, 150, 243, 0.3)" offset="0"></stop><stop stop-opacity="0" stop-color="rgba(33, 150, 243, 0.3)" offset="0.66"></stop></linearGradient><linearGradient x1="100%" y1="100%" x2="0%" y2="0%" id="SvgjsLinearGradient1071"><stop stop-color="rgba(33, 150, 243, 0.3)" offset="0"></stop><stop stop-opacity="0" stop-color="rgba(33, 150, 243, 0.3)" offset="0.66"></stop></linearGradient></defs></svg>